<svg width="13" height="13" viewBox="0 0 13 13" fill="none" xmlns="http://www.w3.org/2000/svg">
<g clip-path="url(#clip0_1_237)">
<path d="M4.87516 11.9167C5.17432 11.9167 5.41683 11.6742 5.41683 11.375C5.41683 11.0759 5.17432 10.8333 4.87516 10.8333C4.57601 10.8333 4.3335 11.0759 4.3335 11.375C4.3335 11.6742 4.57601 11.9167 4.87516 11.9167Z" stroke="black" stroke-linecap="round" stroke-linejoin="round"/>
<path d="M10.8332 11.9167C11.1323 11.9167 11.3748 11.6742 11.3748 11.375C11.3748 11.0759 11.1323 10.8333 10.8332 10.8333C10.534 10.8333 10.2915 11.0759 10.2915 11.375C10.2915 11.6742 10.534 11.9167 10.8332 11.9167Z" stroke="black" stroke-linecap="round" stroke-linejoin="round"/>
<path d="M0.541504 0.541656H2.70817L4.15984 7.79457C4.20937 8.04395 4.34504 8.26797 4.54309 8.4274C4.74114 8.58683 4.98897 8.67153 5.24317 8.66666H10.5082C10.7624 8.67153 11.0102 8.58683 11.2083 8.4274C11.4063 8.26797 11.542 8.04395 11.5915 7.79457L12.4582 3.24999H3.24984" stroke="black" stroke-linecap="round" stroke-linejoin="round"/>
</g>
<defs>
<clipPath id="clip0_1_237">
<rect width="13" height="13" fill="white"/>
</clipPath>
</defs>
</svg>
