<svg width="51" height="22" viewBox="0 0 51 22" fill="none" xmlns="http://www.w3.org/2000/svg">
<rect y="0.669922" width="50.06" height="21" rx="4" fill="#5000AA"/>
<g clip-path="url(#clip0_1_1796)">
<path d="M10.5386 7.65918L7.77734 15.6699H6.10791L9.58643 6.42773H10.6528L10.5386 7.65918ZM12.8491 15.6699L10.0815 7.65918L9.96094 6.42773H11.0337L14.5249 15.6699H12.8491ZM12.7158 12.2422V13.5054H7.68848V12.2422H12.7158ZM16.9434 8.80176V15.6699H15.4136V8.80176H16.9434ZM21.4248 8.80176L18.3335 12.9341H16.5879L16.3848 11.5503H17.6606L19.5142 8.80176H21.4248ZM19.6348 15.6699L17.5654 12.6738L18.7715 11.8042L21.647 15.6699H19.6348ZM22.5293 15.6699V8.80176H24.0591V14.4512H26.7505V8.80176H28.2866V15.6699H22.5293ZM29.2197 14.4575L29.0991 17.7075H27.6963V15.6699H26.8711V14.4575H29.2197ZM31.8794 13.4355L34.5771 8.80176H36.1069V15.6699H34.5771V11.0298L31.8794 15.6699H30.3496V8.80176H31.8794V13.4355ZM39.1729 12.312H40.7598L38.811 15.6699H37.2305L39.1729 12.312ZM40.29 8.80176H43.2354V15.6699H41.7119V10.0078H40.29C40.0023 10.0078 39.7653 10.0586 39.5791 10.1602C39.3929 10.2575 39.2554 10.3866 39.1665 10.5474C39.0776 10.7039 39.0332 10.8647 39.0332 11.0298C39.0332 11.1948 39.0734 11.3535 39.1538 11.5059C39.2384 11.6582 39.3675 11.783 39.541 11.8804C39.7188 11.9777 39.9409 12.0264 40.2075 12.0264H42.2261V13.1436H40.2075C39.7843 13.1436 39.4056 13.0907 39.0713 12.9849C38.737 12.8748 38.4535 12.7246 38.2207 12.5342C37.988 12.3395 37.8102 12.1131 37.6875 11.855C37.5648 11.5926 37.5034 11.307 37.5034 10.998C37.5034 10.6807 37.5669 10.3887 37.6938 10.1221C37.8208 9.85547 38.0028 9.62272 38.2397 9.42383C38.481 9.22493 38.7729 9.07259 39.1157 8.9668C39.4627 8.85677 39.8542 8.80176 40.29 8.80176Z" fill="white"/>
</g>
<defs>
<clipPath id="clip0_1_1796">
<rect width="39" height="21" fill="white" transform="translate(6 0.669922)"/>
</clipPath>
</defs>
</svg>
